<svg xmlns="http://www.w3.org/2000/svg" width="35" height="20" viewBox="0 0 35 20">
    <path fill="#4BC8FF" fill-rule="nonzero" d="M30.652 4.375c.746.935 1.166 2.124 1.166 3.62h1.591S35 8.59 35 9.327v4c0 .736-.712 1.333-1.59 1.333h-1.592v5.333H3.182v-5.333H1.59C.712 14.661 0 14.064 0 13.328v-4c0-.737.712-1.334 1.59-1.334h1.592c0-1.518.432-2.72 1.2-3.661L2.298 2.249A1.333 1.333 0 1 1 4.184.363l2.33 2.33c2.009-.996 4.764-1.365 7.804-1.365h6.364c3.066 0 5.842.375 7.856 1.39L30.893.364a1.333 1.333 0 0 1 1.885 1.886l-2.126 2.126zM9.423 9.328v4h4.039v-4H9.423zm12.115 0v4h4.039v-4h-4.039z"/>
</svg>
