<svg xmlns="http://www.w3.org/2000/svg" width="89" height="72" viewBox="0 0 89 72">
    <g fill="none" fill-rule="evenodd">
        <path fill="#FF904E" fill-rule="nonzero" d="M82 42c-4.107 0-6.401-1.628-8.066-2.816-1.369-.968-2.22-1.584-4.255-1.584-2.072 0-2.886.572-4.255 1.584C63.722 40.372 61.465 42 57.358 42c-4.107 0-6.401-1.628-8.066-2.816-1.369-.968-2.22-1.584-4.255-1.584-2.072 0-2.886.572-4.255 1.584C39.08 40.372 36.786 42 32.679 42c-4.107 0-6.401-1.628-8.066-2.816-1.369-1.012-2.22-1.584-4.255-1.584-2.035 0-2.886.572-4.255 1.584C14.401 40.372 12.107 42 8 42v-8.8c2.072 0 2.886-.572 4.255-1.584 1.702-1.188 3.996-2.816 8.103-2.816 4.107 0 6.401 1.628 8.066 2.816 1.369 1.012 2.183 1.584 4.255 1.584s2.886-.572 4.255-1.584c1.702-1.188 3.996-2.816 8.103-2.816 4.107 0 6.401 1.628 8.066 2.816 1.369.968 2.22 1.584 4.255 1.584 2.035 0 2.886-.572 4.255-1.584 1.665-1.188 3.959-2.816 8.066-2.816 4.107 0 6.401 1.628 8.066 2.816C79.114 32.628 79.928 33.2 82 33.2V42zm-8.066-22.616c-1.369-.968-2.22-1.584-4.255-1.584-2.072 0-2.886.572-4.255 1.584-1.665 1.188-3.959 2.816-8.066 2.816-4.107 0-6.401-1.628-8.066-2.816-1.369-.968-2.22-1.584-4.255-1.584-2.072 0-2.886.572-4.255 1.584-1.665 1.188-3.959 2.816-8.066 2.816-4.107 0-6.401-1.628-8.066-2.816-1.369-.968-2.22-1.584-4.255-1.584-2.035 0-2.886.572-4.255 1.584C14.401 20.572 12.107 22.2 8 22.2v-8.8c2.072 0 2.886-.572 4.255-1.584C13.92 10.628 16.214 9 20.321 9c4.107 0 6.401 1.628 8.066 2.816 1.369.968 2.22 1.584 4.255 1.584 2.072 0 2.886-.572 4.255-1.584C38.562 10.628 40.856 9 44.963 9c4.107 0 6.401 1.628 8.066 2.816 1.369.968 2.22 1.584 4.255 1.584 2.035 0 2.886-.572 4.255-1.584C63.204 10.628 65.498 9 69.605 9c4.107 0 6.401 1.628 8.066 2.816 1.369.968 2.22 1.584 4.255 1.584v8.8c-4.033 0-6.327-1.628-7.992-2.816zM73.934 59.227c-1.369-.954-2.22-1.56-4.255-1.56-2.072 0-2.886.563-4.255 1.56C63.759 60.397 61.465 62 57.358 62c-4.107 0-6.401-1.603-8.066-2.773-1.369-.954-2.22-1.56-4.255-1.56-2.072 0-2.886.563-4.255 1.56C39.117 60.397 36.823 62 32.716 62c-4.107 0-6.401-1.603-8.066-2.773-1.369-.954-2.22-1.56-4.255-1.56-2.035 0-2.886.563-4.255 1.56C14.401 60.397 12.107 62 8 62v-8.667c2.072 0 2.886-.563 4.255-1.56C13.92 50.603 16.214 49 20.321 49c4.107 0 6.401 1.603 8.066 2.773 1.369.954 2.22 1.56 4.255 1.56 2.072 0 2.886-.563 4.255-1.56C38.562 50.603 40.856 49 44.963 49c4.107 0 6.401 1.603 8.066 2.773 1.369.954 2.22 1.56 4.255 1.56 2.035 0 2.886-.563 4.255-1.56C63.204 50.603 65.498 49 69.605 49c4.107 0 6.401 1.603 8.066 2.773 1.369.954 2.22 1.56 4.255 1.56V62c-4.033 0-6.327-1.603-7.992-2.773z"/>
        <path d="M0 0h89v72H0z"/>
    </g>
</svg>
