<svg xmlns="http://www.w3.org/2000/svg" width="98" height="60" viewBox="0 0 98 60">
    <g fill="#1DB158" fill-rule="evenodd">
        <path fill-rule="nonzero" d="M27 27.525l-2.175-1.98C17.1 18.54 12 13.92 12 8.25 12 3.63 15.63 0 20.25 0c2.61 0 5.115 1.215 6.75 3.135C28.635 1.215 31.14 0 33.75 0 38.37 0 42 3.63 42 8.25c0 5.67-5.1 10.29-12.825 17.31L27 27.525z"/>
        <path d="M28.146 34.918c3.89.568 6.65 2.918 8.279 7.052-4.375-1.227-8.422-1.35-12.142-.371-3.72.979-6.725 2.958-9.014 5.938 7.166-1.34 11.95-1.96 14.349-1.856 4.538 0 7.972.866 10.302 2.598-1.962-11.323-.736-19.859 3.68-25.609 8.596-11.195 20.419-10.763 30.72-12.433C81.19 9.124 88.916 6.711 97.5 3c-.736 14.35-5.703 25.3-14.9 32.846-9.2 7.547-20.36 9.897-33.482 7.052 2.698-7.052 7.052-12.805 13.061-17.258 6.01-4.454 12.387-7.176 19.132-8.165-11.773-.866-21.34 2.66-28.698 10.577-6.622 9.897-9.382 20.165-8.278 30.805-.837-3.216-2.8-5.01-5.887-5.382-3.087-.372-6.766.741-11.038 3.34-7.358 3.836-13.245 4.207-17.66 1.114C3.439 53.508.189 46.147 0 35.846c2.223 1.114 4.124 1.733 5.703 1.856 1.08.084 6.3-.413 11.796-2.062 5.496-1.65 7.997-1.109 10.647-.722z"/>
    </g>
</svg>
