<svg xmlns="http://www.w3.org/2000/svg" width="108" height="108" viewBox="0 0 108 108">
    <g fill="none" fill-rule="evenodd">
        <path d="M0 0h108v108H0z"/>
        <path fill="#FEE54E" fill-rule="nonzero" d="M30.42 24.496l-8.1-8.03-6.345 6.325 8.055 8.03 6.39-6.325zM18 49.89H4.5v8.972H18V49.89zM58.5 5.25h-9v13.235h9V5.25zm33.525 17.541l-6.345-6.325-8.055 8.03 6.345 6.326 8.055-8.03zM77.58 84.254l8.055 8.075 6.345-6.326-8.1-8.03-6.3 6.28zM90 49.889v8.972h13.5V49.89H90zM54 27.457c-14.895 0-27 12.068-27 26.918s12.105 26.918 27 26.918 27-12.068 27-26.918-12.105-26.918-27-26.918zM49.5 103.5h9V90.265h-9V103.5zM15.975 85.959l6.345 6.325 8.055-8.075-6.345-6.326-8.055 8.076z"/>
    </g>
</svg>
