<svg xmlns="http://www.w3.org/2000/svg" width="97" height="97" viewBox="0 0 97 97">
    <g fill="none" fill-rule="evenodd">
        <path d="M97 0H0v97h97V0zm0 0H0v97h97V0zM0 97h97V0H0v97z"/>
        <path fill="#4BC8FF" fill-rule="nonzero" d="M71.376 32.333L48.5 9.498 25.624 32.333c-6.305 6.305-9.457 14.712-9.457 22.795 0 8.084 3.152 16.612 9.457 22.917a32.293 32.293 0 0 0 45.752 0c6.305-6.305 9.457-14.833 9.457-22.917 0-8.083-3.152-16.49-9.457-22.795zM24.25 56.583c.04-8.083 2.506-13.216 7.113-17.783L48.5 21.3l17.137 17.702c4.607 4.527 7.073 9.498 7.113 17.581h-48.5z"/>
    </g>
</svg>
