<svg xmlns="http://www.w3.org/2000/svg" width="762" height="476" viewBox="0 0 762 476">
    <g fill="#A2E3FF" fill-rule="evenodd">
        <circle cx="313.5" cy="220.5" r="25.5" opacity=".286"/>
        <circle cx="131.5" cy="231.5" r="25.5" opacity=".286"/>
        <circle cx="204.5" cy="297.5" r="25.5" opacity=".286"/>
        <circle cx="491.5" cy="418.5" r="25.5" opacity=".286"/>
        <circle cx="44.5" cy="373.5" r="25.5" opacity=".286"/>
        <circle cx="389" cy="224" r="19" opacity=".286"/>
        <circle cx="223" cy="208" r="19" opacity=".286"/>
        <circle cx="275" cy="326" r="19" opacity=".286"/>
        <circle cx="567" cy="422" r="19" opacity=".286"/>
        <circle cx="401" cy="94" r="19" opacity=".286"/>
        <circle cx="591" cy="406" r="19" opacity=".286"/>
        <circle cx="425" cy="78" r="19" opacity=".286"/>
        <circle cx="230" cy="116" r="19" opacity=".286"/>
        <circle cx="114" cy="417" r="19" opacity=".286"/>
        <circle cx="603" cy="243" r="19" opacity=".286"/>
        <circle cx="285.5" cy="240.5" r="19.5" opacity=".286"/>
        <circle cx="146.5" cy="206.5" r="19.5" opacity=".286"/>
        <circle cx="178.5" cy="323.5" r="19.5" opacity=".286"/>
        <circle cx="463.5" cy="438.5" r="19.5" opacity=".286"/>
        <circle cx="35.5" cy="125.5" r="19.5" opacity=".286"/>
        <circle cx="126.5" cy="132.5" r="19.5" opacity=".286"/>
        <circle cx="44.5" cy="39.5" r="19.5" opacity=".286"/>
        <circle cx="217.5" cy="19.5" r="19.5" opacity=".286"/>
        <circle cx="489.5" cy="37.5" r="19.5" opacity=".286"/>
        <circle cx="528.5" cy="250.5" r="19.5" opacity=".286"/>
        <circle cx="730.5" cy="432.5" r="19.5" opacity=".286"/>
        <circle cx="564.5" cy="104.5" r="19.5" opacity=".286"/>
        <circle cx="615.5" cy="212.5" r="19.5" opacity=".286"/>
        <circle cx="369.5" cy="142.5" r="19.5" opacity=".286"/>
        <circle cx="288" cy="307" r="13" opacity=".286"/>
        <circle cx="253.5" cy="443.5" r="19.5" opacity=".286"/>
        <circle cx="614.5" cy="354.5" r="19.5" opacity=".286"/>
        <circle cx="742.5" cy="68.5" r="19.5" opacity=".286"/>
        <circle cx="457.5" cy="218.5" r="25.5" opacity=".2"/>
        <circle cx="398.5" cy="387.5" r="25.5" opacity=".2"/>
        <circle cx="707.5" cy="385.5" r="25.5" opacity=".2"/>
        <circle cx="710.5" cy="279.5" r="25.5" opacity=".2"/>
        <circle cx="584.5" cy="120.5" r="25.5" opacity=".2"/>
        <circle cx="635.5" cy="228.5" r="25.5" opacity=".2"/>
        <circle cx="298.5" cy="110.5" r="25.5" opacity=".2"/>
        <circle cx="182.5" cy="411.5" r="25.5" opacity=".2"/>
        <circle cx="543.5" cy="322.5" r="25.5" opacity=".2"/>
        <circle cx="671.5" cy="31.5" r="25.5" opacity=".2"/>
        <circle cx="483" cy="229" r="15" opacity=".286"/>
        <circle cx="417" cy="284" r="15" opacity=".286"/>
        <circle cx="685" cy="411" r="15" opacity=".286"/>
        <circle cx="723" cy="254" r="15" opacity=".286"/>
        <circle cx="607" cy="100" r="15" opacity=".286"/>
        <circle cx="697" cy="191" r="15" opacity=".286"/>
        <circle cx="324" cy="121" r="15" opacity=".286"/>
        <circle cx="208" cy="422" r="15" opacity=".286"/>
        <circle cx="569" cy="333" r="15" opacity=".286"/>
        <circle cx="697" cy="47" r="15" opacity=".286"/>
        <circle cx="299" cy="25" r="15" opacity=".286"/>
        <circle cx="432" cy="269" r="15" opacity=".286"/>
        <circle cx="318" cy="371" r="15" opacity=".286"/>
        <circle cx="723" cy="297" r="15" opacity=".286"/>
        <circle cx="634" cy="451" r="15" opacity=".286"/>
        <circle cx="468" cy="123" r="15" opacity=".286"/>
        <circle cx="560" cy="40" r="15" opacity=".286"/>
        <circle cx="559" cy="186" r="15" opacity=".286"/>
        <circle cx="480.5" cy="135.5" r="12.5" opacity=".286"/>
        <circle cx="16.5" cy="358.5" r="12.5" opacity=".286"/>
        <circle cx="306.5" cy="374.5" r="12.5" opacity=".286"/>
        <circle cx="217.5" cy="95.5" r="12.5" opacity=".286"/>
        <circle cx="287.5" cy="31.5" r="12.5" opacity=".286"/>
        <circle cx="459.5" cy="344.5" r="12.5" opacity=".286"/>
        <circle cx="12.5" cy="112.5" r="12.5" opacity=".286"/>
        <circle cx="96.5" cy="432.5" r="12.5" opacity=".286"/>
        <circle cx="131.5" cy="34.5" r="12.5" opacity=".286"/>
        <circle cx="120.5" cy="44.5" r="12.5" opacity=".286"/>
        <circle cx="273" cy="161" r="15" opacity=".286"/>
        <circle cx="157" cy="462" r="15" opacity=".286"/>
        <circle cx="451" cy="359" r="15" opacity=".286"/>
        <circle cx="646" cy="87" r="15" opacity=".286"/>
        <circle cx="354" cy="310" r="11" opacity=".286"/>
        <circle cx="540" cy="175" r="11" opacity=".286"/>
        <circle cx="576" cy="29" r="11" opacity=".286"/>
        <circle cx="693" cy="125" r="11" opacity=".286"/>
        <circle cx="643" cy="296" r="11" opacity=".286"/>
        <circle cx="25" cy="250" r="11" opacity=".286"/>
        <circle cx="40" cy="257" r="11" opacity=".286"/>
        <circle cx="13" cy="439" r="11" opacity=".286"/>
        <circle cx="344" cy="440" r="11" opacity=".286"/>
        <circle cx="716" cy="177" r="15" opacity=".286"/>
        <circle cx="219" cy="190" r="15" opacity=".286"/>
        <circle cx="69" cy="193" r="15" opacity=".286"/>
        <circle cx="100" cy="318" r="15" opacity=".286"/>
        <circle cx="392" cy="414" r="15" opacity=".286"/>
        <circle cx="55" cy="108" r="15" opacity=".286"/>
        <circle cx="55" cy="344" r="15" opacity=".286"/>
    </g>
</svg>
